<?xml version="1.0" standalone="no"?>
<!DOCTYPE svg PUBLIC "-//W3C//DTD SVG 20010904//EN"
 "http://www.w3.org/TR/2001/REC-SVG-20010904/DTD/svg10.dtd">
<svg version="1.0" xmlns="http://www.w3.org/2000/svg"
 width="900.000000pt" height="900.000000pt" viewBox="0 0 900.000000 900.000000"
 preserveAspectRatio="xMidYMid meet">
<metadata>
Created by potrace 1.10, written by Peter Selinger 2001-2011
</metadata>
<g transform="translate(0.000000,900.000000) scale(0.100000,-0.100000)"
fill="#ffffff" stroke="none">
<path d="M2868 7385 c-3 -3 -52 -10 -109 -15 -245 -22 -387 -38 -398 -44 -7
-4 -49 -14 -94 -22 -158 -29 -283 -56 -332 -72 -16 -6 -57 -18 -90 -27 -33 -9
-75 -23 -93 -31 -18 -8 -41 -14 -50 -14 -10 0 -22 -4 -27 -8 -6 -5 -43 -19
-82 -32 -40 -12 -78 -29 -84 -36 -6 -8 -24 -14 -40 -14 -15 0 -30 -4 -33 -9
-4 -5 -26 -19 -51 -30 -87 -41 -130 -63 -160 -82 -16 -10 -39 -23 -50 -29 -29
-15 -56 -32 -96 -62 -20 -16 -41 -28 -46 -28 -5 0 -22 -13 -38 -30 -16 -16
-33 -30 -38 -30 -5 0 -27 -14 -49 -31 -51 -41 -303 -293 -349 -350 -52 -64
-149 -205 -149 -216 0 -6 -12 -28 -28 -49 -24 -34 -110 -202 -132 -259 -5 -11
-17 -40 -28 -65 -17 -39 -32 -86 -95 -290 -23 -77 -48 -194 -67 -320 -6 -41
-19 -109 -28 -150 -25 -109 -24 -874 0 -995 9 -44 20 -107 23 -140 4 -33 11
-64 15 -70 4 -5 10 -30 13 -55 11 -88 32 -179 45 -192 6 -6 12 -23 12 -38 0
-25 24 -109 41 -142 5 -10 9 -23 9 -29 0 -13 67 -186 80 -209 5 -8 19 -35 31
-60 12 -25 25 -52 30 -60 4 -8 20 -37 34 -65 42 -81 153 -248 220 -329 137
-167 379 -376 548 -473 11 -6 22 -15 26 -20 9 -11 71 -46 178 -99 51 -25 95
-50 99 -55 3 -5 17 -9 31 -9 15 0 34 -6 42 -14 9 -7 39 -21 66 -31 28 -10 55
-22 60 -26 6 -4 30 -12 55 -19 25 -7 62 -20 83 -30 20 -10 56 -21 78 -25 22
-4 53 -13 67 -21 15 -8 35 -14 46 -14 10 0 41 -7 70 -16 97 -30 115 -35 168
-41 29 -3 65 -12 79 -19 15 -7 70 -17 123 -20 53 -4 99 -11 102 -15 3 -5 38
-9 79 -9 41 0 76 -4 79 -9 4 -5 50 -12 104 -16 53 -3 185 -13 292 -21 135 -10
362 -14 732 -14 l537 0 35 34 36 33 0 484 c0 266 -4 490 -9 498 -7 11 -125 13
-737 10 -747 -3 -1043 6 -1109 35 -16 8 -61 18 -100 24 -38 5 -86 15 -105 21
-19 5 -62 17 -94 25 -32 8 -64 20 -69 25 -6 6 -18 11 -28 11 -9 0 -36 11 -60
23 -24 13 -57 27 -74 31 -16 4 -35 12 -42 18 -11 9 -24 16 -114 65 -83 45
-170 114 -279 224 -104 105 -240 272 -240 296 0 5 -11 30 -24 54 -45 81 -63
123 -86 199 -13 41 -27 80 -31 85 -4 6 -10 31 -14 58 -4 26 -11 50 -16 53 -5
3 -9 24 -9 48 0 23 -4 46 -9 51 -24 25 -49 573 -32 700 6 44 15 118 20 165 15
123 21 163 31 185 5 11 13 43 19 71 6 29 22 78 36 109 14 32 25 62 25 68 0 16
69 155 80 162 6 4 10 13 10 22 0 8 13 32 28 52 16 20 31 43 35 51 3 8 27 41
54 74 26 32 53 66 58 76 6 9 55 56 110 104 55 49 112 99 127 112 14 13 31 24
36 24 6 0 17 6 24 14 8 7 34 24 58 37 114 63 187 100 205 105 11 4 38 15 60
24 42 19 168 60 245 80 25 6 59 16 76 21 16 5 66 12 110 15 43 4 92 13 108 21
23 12 88 15 325 16 l296 2 5 -630 5 -630 545 0 545 0 3 1123 2 1123 -25 24
-24 25 -739 0 c-406 0 -741 -2 -744 -5z"/>
<path d="M5017 7378 c-16 -12 -17 -116 -15 -1703 l3 -1690 1115 -5 c687 -3
1121 -9 1130 -15 8 -5 35 -12 60 -16 60 -10 134 -32 151 -45 8 -5 34 -19 59
-29 133 -56 262 -184 308 -305 47 -123 47 -340 0 -460 -25 -62 -45 -94 -100
-150 -95 -100 -182 -155 -298 -192 -36 -11 -78 -26 -95 -34 -56 -26 -259 -38
-750 -43 l-490 -6 -3 -510 c-2 -471 -1 -511 15 -523 21 -15 928 -18 1014 -2
30 5 108 14 174 20 124 11 225 27 260 40 11 5 40 11 65 14 58 8 220 58 365
114 60 23 193 88 250 122 28 16 57 33 65 37 40 18 174 130 251 210 98 100 168
193 210 275 16 31 33 59 39 63 5 3 10 17 10 29 0 13 7 29 15 36 8 7 15 24 15
39 0 15 5 32 12 39 7 7 18 33 25 60 8 26 18 63 24 82 6 19 15 58 20 85 6 28
15 68 21 90 6 22 13 136 15 253 3 172 1 222 -11 255 -8 23 -18 68 -21 99 -4
32 -11 60 -16 63 -5 4 -9 15 -9 25 0 11 -7 36 -16 57 -9 21 -22 52 -29 68 -21
51 -54 119 -73 146 -9 15 -30 48 -46 75 -29 48 -232 264 -249 264 -5 0 -26 13
-46 28 -20 16 -43 32 -51 35 -8 4 -37 21 -65 37 -27 17 -66 37 -85 46 -19 8
-44 19 -55 24 -11 5 -32 14 -47 20 -31 11 -37 38 -10 46 9 3 24 9 32 14 8 5
35 19 60 31 90 45 227 146 310 229 78 78 190 226 190 253 0 6 6 18 13 26 7 9
21 36 31 61 10 25 24 57 32 72 8 14 14 35 14 46 0 12 4 23 9 27 5 3 13 31 16
63 4 31 15 68 24 82 24 38 24 543 -1 610 -9 25 -19 71 -23 102 -3 32 -11 60
-16 63 -5 4 -9 19 -9 34 0 15 -3 30 -6 34 -4 3 -18 39 -31 79 -13 40 -30 80
-37 88 -6 8 -22 38 -35 65 -13 28 -34 64 -47 82 -13 17 -24 36 -24 40 0 5 -8
20 -17 33 -18 25 -284 293 -313 315 -32 24 -168 105 -178 105 -5 0 -15 7 -22
14 -6 8 -33 23 -58 32 -26 10 -53 22 -60 28 -13 9 -40 20 -177 71 -33 12 -67
25 -75 28 -8 3 -28 8 -45 10 -16 3 -61 15 -100 27 -38 12 -104 26 -145 32 -41
5 -84 13 -95 18 -45 20 -167 23 -1215 26 -872 3 -1099 2 -1113 -8z m2125
-1019 c54 -8 103 -20 110 -27 7 -7 20 -12 30 -12 24 0 147 -54 203 -91 17 -10
37 -22 45 -26 23 -10 160 -153 171 -177 5 -12 13 -28 18 -36 30 -53 41 -82 41
-108 0 -16 7 -35 15 -42 22 -18 21 -276 0 -304 -8 -11 -15 -27 -15 -37 0 -58
-145 -234 -235 -286 -115 -66 -175 -90 -280 -113 -243 -52 -221 -51 -705 -48
l-455 3 -3 663 -2 662 482 -3 c354 -3 509 -8 580 -18z"/>
</g>
</svg>
