<?xml version="1.0" standalone="no"?>
<!DOCTYPE svg PUBLIC "-//W3C//DTD SVG 20010904//EN"
 "http://www.w3.org/TR/2001/REC-SVG-20010904/DTD/svg10.dtd">
<svg version="1.0" xmlns="http://www.w3.org/2000/svg"
 width="138.000000pt" height="103.000000pt" viewBox="0 0 138.000000 103.000000"
 preserveAspectRatio="xMidYMid meet">
<metadata>
Created by potrace 1.10, written by Peter Selinger 2001-2011
</metadata>
<g transform="translate(0.000000,103.000000) scale(0.050000,-0.050000)"
fill="#ffffff" stroke="none">
<path d="M69 2011 c-65 -65 -65 -157 0 -222 l49 -49 1272 0 1272 0 49 49 c65
65 65 157 0 222 l-49 49 -1272 0 -1272 0 -49 -49z"/>
<path d="M110 1177 c-101 -56 -123 -179 -44 -254 l47 -43 1274 0 1275 0 49 49
c62 62 62 133 1 205 l-49 56 -1256 5 c-889 3 -1269 -2 -1297 -18z"/>
<path d="M1298 300 c-58 -34 -85 -129 -55 -193 50 -103 75 -106 764 -107 l636
0 59 58 c72 73 75 147 9 213 l-49 49 -666 -1 c-381 0 -680 -8 -698 -19z"/>
</g>
</svg>
